<?xml version="1.0" encoding="utf-8"?>
<!-- Generator: Adobe Illustrator 22.0.1, SVG Export Plug-In . SVG Version: 6.00 Build 0)  -->
<svg version="1.1" id="Layer_1" xmlns="http://www.w3.org/2000/svg" xmlns:xlink="http://www.w3.org/1999/xlink" x="0px" y="0px"
	 viewBox="0 0 1024 1024" style="enable-background:new 0 0 1024 1024;" xml:space="preserve">
<style type="text/css">
	.st0{fill-rule:evenodd;clip-rule:evenodd;fill:#FFFFFF;}
</style>
<path class="st0" d="M512,11C232,11,15,216.1,15,493.1C15,638,74.4,763.2,171.1,849.7c8.1,7.3,13,17.4,13.4,28.3l2.7,88.4
	c0.9,28.2,30,46.5,55.8,35.2l98.6-43.5c8.4-3.7,17.7-4.4,26.5-2c45.3,12.5,93.6,19.1,143.9,19.1c280,0,497-205.1,497-482.1
	S792,11,512,11z M810.4,381.9l-146,231.6c-23.2,36.8-73,46-107.8,19.9l-116.1-87.1c-10.7-8-25.3-7.9-35.9,0.1l-156.8,119
	c-20.9,15.9-48.3-9.2-34.2-31.4l146-231.6c23.2-36.8,73-46,107.8-19.9l116.1,87.1c10.7,8,25.3,7.9,35.9-0.1l156.8-119
	C797.1,334.6,824.5,359.7,810.4,381.9z"/>
</svg>
