<?xml version="1.0" encoding="utf-8"?>
<!-- Generator: Adobe Illustrator 23.1.1, SVG Export Plug-In . SVG Version: 6.00 Build 0)  -->
<svg version="1.1" id="Layer_1" xmlns="http://www.w3.org/2000/svg" xmlns:xlink="http://www.w3.org/1999/xlink" x="0px" y="0px"
	 viewBox="0 0 500 500" style="enable-background:new 0 0 500 500;" xml:space="preserve">
<style type="text/css">
	.st0{fill:#FFFFFF;}
</style>
<rect width="500" height="500"/>
<title>1Artboard 1 copy 2</title>
<g id="PRIMARY_-_GHOST">
	<path class="st0" d="M444.3,337.3c-2.7-7.4-7.9-11.4-13.8-14.6c-1.1-0.6-2.1-1.2-3-1.6c-1.8-0.9-3.6-1.8-5.4-2.7
		c-18.4-9.8-32.8-22-42.7-36.6c-2.8-4.1-5.3-8.5-7.3-13c-0.9-2.4-0.8-3.8-0.2-5.1c0.6-1,1.4-1.8,2.4-2.5c3.2-2.1,6.4-4.2,8.6-5.6
		c3.9-2.6,7.1-4.6,9.1-6c7.5-5.3,12.8-10.9,16.1-17.2c4.7-8.8,5.3-19.1,1.7-28.4c-5-13.2-17.4-21.3-32.5-21.3c-3.2,0-6.3,0.3-9.5,1
		c-0.8,0.2-1.7,0.4-2.5,0.6c0.1-9-0.1-18.5-0.9-27.9c-2.8-32.9-14.4-50.1-26.4-63.8c-7.7-8.6-16.7-15.9-26.8-21.6
		c-18.2-10.4-38.9-15.7-61.4-15.7s-43.1,5.3-61.3,15.7c-10.1,5.7-19.1,13-26.8,21.6c-12,13.7-23.5,31-26.4,63.8
		c-0.8,9.4-1,18.9-0.9,27.9c-0.8-0.2-1.6-0.4-2.5-0.6c-3.1-0.7-6.3-1-9.4-1c-15.1,0-27.5,8.2-32.5,21.3c-3.6,9.3-3,19.6,1.7,28.4
		c3.3,6.3,8.6,11.9,16.1,17.2c2,1.4,5.1,3.4,9.1,6c2.1,1.4,5.2,3.4,8.3,5.4c1.1,0.7,2,1.6,2.7,2.7c0.6,1.3,0.7,2.7-0.3,5.3
		c-2,4.4-4.4,8.7-7.2,12.7c-9.7,14.2-23.7,26.3-41.5,36c-9.4,5-19.2,8.3-23.4,19.6c-3.1,8.5-1.1,18.1,6.8,26.3l0,0
		c2.9,3,6.3,5.6,10,7.6c7.7,4.2,15.9,7.5,24.5,9.8c1.8,0.5,3.4,1.2,4.9,2.2c2.9,2.5,2.5,6.3,6.3,11.9c1.9,2.9,4.4,5.4,7.2,7.4
		c8.1,5.6,17.2,5.9,26.8,6.3c8.7,0.3,18.5,0.7,29.8,4.4c4.7,1.5,9.5,4.5,15.1,8c13.5,8.3,31.9,19.6,62.8,19.6s49.4-11.4,63-19.7
		c5.6-3.4,10.4-6.4,14.9-7.9c11.2-3.7,21.1-4.1,29.8-4.4c9.6-0.4,18.7-0.7,26.8-6.3c3.4-2.4,6.2-5.4,8.2-9c2.8-4.7,2.7-8,5.3-10.3
		c1.4-1,3-1.7,4.6-2.1c8.6-2.3,17-5.6,24.8-9.9c3.9-2.1,7.5-4.9,10.5-8.2l0.1-0.1C445.5,354.9,447.4,345.5,444.3,337.3z M416.9,352
		c-16.7,9.2-27.9,8.2-36.5,13.8c-7.4,4.7-3,14.9-8.3,18.6c-6.6,4.5-26-0.3-51,8c-20.7,6.8-33.8,26.5-71,26.5s-50-19.6-71-26.5
		c-25-8.3-44.4-3.4-51-8c-5.3-3.7-1-13.9-8.3-18.6c-8.7-5.6-19.8-4.6-36.5-13.8c-10.7-5.9-4.6-9.5-1.1-11.2
		c60.6-29.3,70.3-74.6,70.7-78c0.5-4.1,1.1-7.3-3.4-11.4c-4.3-4-23.5-15.9-28.9-19.6c-8.8-6.2-12.7-12.3-9.8-19.9
		c2-5.2,6.9-7.2,12-7.2c1.6,0,3.2,0.2,4.8,0.5c9.7,2.1,19.1,6.9,24.5,8.3c0.7,0.2,1.3,0.3,2,0.3c2.9,0,3.9-1.5,3.7-4.8
		c-0.6-10.6-2.1-31.2-0.4-50.5c2.3-26.5,10.8-39.7,21-51.3c4.9-5.6,27.8-29.8,71.7-29.8s66.8,24.1,71.7,29.7
		c10.2,11.6,18.7,24.8,21,51.3c1.7,19.3,0.2,39.9-0.5,50.5c-0.2,3.5,0.8,4.8,3.7,4.8c0.7,0,1.3-0.1,2-0.3c5.4-1.3,14.8-6.2,24.5-8.3
		c1.6-0.4,3.2-0.5,4.8-0.5c5.1,0,10,2,12,7.2c2.9,7.6-1,13.7-9.8,19.9c-5.3,3.7-24.5,15.6-28.9,19.6c-4.5,4.1-3.9,7.3-3.4,11.4
		c0.4,3.4,10.1,48.7,70.7,78C421.5,342.4,427.5,346.1,416.9,352z"/>
</g>
</svg>
