<?xml version="1.0" encoding="utf-8"?>
<!-- Generator: Adobe Illustrator 19.2.1, SVG Export Plug-In . SVG Version: 6.00 Build 0)  -->
<svg version="1.1" id="Layer_1" xmlns="http://www.w3.org/2000/svg" xmlns:xlink="http://www.w3.org/1999/xlink" x="0px" y="0px"
	 viewBox="0 0 432 360" style="enable-background:new 0 0 432 360;" xml:space="preserve">
<style type="text/css">
	.st0{fill-rule:evenodd;clip-rule:evenodd;}
</style>
<path class="st0" d="M252,91l-4,13l0.1,60H263v8h8l8-8h14l26-26V91H252z M312,134l-11,11h-18l-10,10v-10h-15V98h54V134z M294,111h7
	v20h-7V111z M276,111h7v20h-7V111z M361,204v47l-26,18h-16v-8l-12,8h-14v-8l-9,8h-26l-8-8l-2,8l-22.9-0.1L216,261l-1,8l-26-0.1
	l-1-7.9l-7,7.9l-40,0.1l-8-4v4h-22l-24-15l-15-15l0-66h31l15,15h68v-15h56v15h14v8l8-8h17l15-15h32v15h17L361,204z M111,195H97v-15
	H79v56l11,12h21v-19H97v-16h14V195z M186,195h-18v34h-7v-34h-17v34h-7v-34h-19v53h56l12-12V195z M210,195h-17v53h17V195z M210,180
	h-17v8h17V180z M249,195h-14v-15h-18v56l11,12h21v-19h-14v-16h14V195z M295,195h-28l-11,11v30l12,12h27v-19h-20v-16h20V195z
	 M354,206l-12-11h-21v-15h-19v68h19v-35h14v35h19V206z"/>
</svg>
