<svg width="138" height="114" viewBox="0 0 138 114" fill="none" xmlns="http://www.w3.org/2000/svg">
<path fill-rule="evenodd" clip-rule="evenodd" d="M137.598 39.7898V61.8398C137.598 69.9584 131.017 76.5398 122.898 76.5398H115.548V84.8698C115.548 91.6353 110.064 97.1198 103.298 97.1198H63.5664C63.4364 97.1198 63.3118 97.1715 63.2199 97.2634L48.0473 112.436C46.1953 114.288 43.0284 112.976 43.0284 110.357V97.6098C43.0284 97.3392 42.809 97.1198 42.5384 97.1198H34.6984C27.9329 97.1198 22.4484 91.6353 22.4484 84.8698V76.5398H15.0984C6.97982 76.5398 0.398438 69.9584 0.398438 61.8398V39.7898C0.398438 31.6713 6.97982 25.0898 15.0984 25.0898V22.1498C15.0984 10.2426 24.7512 0.589844 36.6584 0.589844H101.338C113.246 0.589844 122.898 10.2426 122.898 22.1498V25.0898C131.017 25.0898 137.598 31.6713 137.598 39.7898ZM29.7984 22.1498C29.7984 18.3612 32.8698 15.2898 36.6584 15.2898H101.338C105.127 15.2898 108.198 18.3612 108.198 22.1498V25.0898H29.7984V22.1498ZM68.9984 62.3298L65.4444 73.7817C64.9354 75.4219 63.418 76.5398 61.7006 76.5398H29.7984V84.8698C29.7984 87.5761 31.9922 89.7698 34.6984 89.7698H47.9284C49.2816 89.7698 50.3784 90.8668 50.3784 92.2198V97.6098V99.7103L57.7284 92.3603L59.6013 90.4874C60.0608 90.028 60.684 89.7698 61.3338 89.7698H63.5664H103.298C106.005 89.7698 108.198 87.5761 108.198 84.8698V76.5398H76.2963C74.5789 76.5398 73.0615 75.4219 72.5525 73.7817L68.9984 62.3298ZM10.1984 39.7898C10.1984 37.0836 12.3922 34.8898 15.0984 34.8898V29.9898C9.68607 29.9898 5.29844 34.3775 5.29844 39.7898V61.8398C5.29844 63.1929 6.39531 64.2898 7.74844 64.2898C9.10156 64.2898 10.1984 63.1929 10.1984 61.8398V39.7898ZM127.798 39.7898C127.798 37.0836 125.605 34.8898 122.898 34.8898V29.9898C128.311 29.9898 132.698 34.3775 132.698 39.7898V61.8398C132.698 63.1929 131.602 64.2898 130.248 64.2898C128.895 64.2898 127.798 63.1929 127.798 61.8398V39.7898ZM22.4484 32.4398H115.548V61.8398C115.548 65.8991 112.258 69.1898 108.198 69.1898H78.5387C78.1102 69.1898 77.7313 68.9114 77.6035 68.5024L72.7397 52.9506C71.5931 49.284 66.4038 49.284 65.2572 52.9506L60.3934 68.5024C60.2655 68.9114 59.8867 69.1898 59.4581 69.1898H29.7984C25.7392 69.1898 22.4484 65.8991 22.4484 61.8398V32.4398ZM44.4984 37.3398C39.0861 37.3398 34.6984 41.7274 34.6984 47.1398V54.4898C34.6984 59.9023 39.0861 64.2898 44.4984 64.2898C49.9108 64.2898 54.2984 59.9023 54.2984 54.4898V47.1398C54.2984 41.7274 49.9108 37.3398 44.4984 37.3398ZM43.5184 41.2598C40.8122 41.2598 38.6184 43.4536 38.6184 46.1598C38.6184 48.8661 40.8122 51.0598 43.5184 51.0598C46.2247 51.0598 48.4184 48.8661 48.4184 46.1598C48.4184 43.4536 46.2247 41.2598 43.5184 41.2598ZM83.6984 47.1398C83.6984 41.7274 88.0861 37.3398 93.4984 37.3398C98.9108 37.3398 103.298 41.7274 103.298 47.1398V54.4898C103.298 59.9023 98.9108 64.2898 93.4984 64.2898C88.0861 64.2898 83.6984 59.9023 83.6984 54.4898V47.1398ZM87.6184 46.1598C87.6184 43.4536 89.8122 41.2598 92.5184 41.2598C95.2247 41.2598 97.4184 43.4536 97.4184 46.1598C97.4184 48.8661 95.2247 51.0598 92.5184 51.0598C89.8122 51.0598 87.6184 48.8661 87.6184 46.1598Z" fill="white"/>
</svg>
