<svg width="433" height="76" viewBox="0 0 433 76" fill="none" xmlns="http://www.w3.org/2000/svg">
<path d="M128.847 53.5805C135.575 53.5805 140.737 50.4485 140.737 43.5465V43.4305C140.737 37.7465 135.691 35.6585 131.341 34.2085C127.977 33.0485 125.019 32.2365 125.019 30.4965V30.3805C125.019 29.1625 126.121 28.2345 128.267 28.2345C130.123 28.2345 132.501 28.9885 134.995 30.2065C135.575 30.4965 135.981 30.6125 136.619 30.6125C138.591 30.6125 140.157 29.1045 140.157 27.1325C140.157 25.6245 139.345 24.4645 138.069 23.8265C135.053 22.3185 131.689 21.4485 128.441 21.4485C122.177 21.4485 117.073 24.9865 117.073 31.3085V31.4245C117.073 37.4565 122.003 39.4865 126.353 40.7625C129.775 41.8065 132.791 42.4445 132.791 44.3585V44.4745C132.791 45.8665 131.631 46.7945 129.079 46.7945C126.585 46.7945 123.627 45.8665 120.669 44.0105C120.205 43.7205 119.567 43.5465 118.929 43.5465C116.957 43.5465 115.449 45.0545 115.449 47.0265C115.449 48.4185 116.203 49.4625 117.131 50.0425C120.901 52.4785 125.019 53.5805 128.847 53.5805Z" fill="#09161D"/>
<path d="M156.988 53.5225C158.902 53.5225 160.41 53.2905 162.034 52.6525C163.252 52.1885 164.296 50.9125 164.296 49.3465C164.296 47.3165 162.614 45.6925 160.642 45.6925C160.468 45.6925 159.888 45.7505 159.598 45.7505C157.626 45.7505 156.756 44.7645 156.756 42.7345V29.4525H160.642C162.73 29.4525 164.412 27.7705 164.412 25.6825C164.412 23.5945 162.73 21.9125 160.642 21.9125H156.756V18.0265C156.756 15.5905 154.784 13.6185 152.348 13.6185C149.912 13.6185 147.94 15.5905 147.94 18.0265V21.9125H147.65C145.562 21.9125 143.88 23.5945 143.88 25.6825C143.88 27.7705 145.562 29.4525 147.65 29.4525H147.94V44.1845C147.94 51.3765 151.594 53.5225 156.988 53.5225Z" fill="#09161D"/>
<path d="M170.562 48.9405C170.562 51.3765 172.534 53.3485 174.97 53.3485C177.406 53.3485 179.378 51.3765 179.378 48.9405V40.7045C179.378 34.4405 181.872 31.0185 186.338 29.9745C188.136 29.5685 189.644 28.1765 189.644 25.8565C189.644 23.3625 188.078 21.5645 185.352 21.5645C182.742 21.5645 180.654 24.3485 179.378 27.3645V25.9725C179.378 23.5365 177.406 21.5645 174.97 21.5645C172.534 21.5645 170.562 23.5365 170.562 25.9725V48.9405Z" fill="#09161D"/>
<path d="M201.089 35.0205C201.785 31.0185 204.163 28.4085 207.817 28.4085C211.529 28.4085 213.849 31.0765 214.371 35.0205H201.089ZM219.475 49.9265C220.113 49.3465 220.635 48.4765 220.635 47.3165C220.635 45.3445 219.185 43.8365 217.213 43.8365C216.285 43.8365 215.705 44.0685 215.067 44.5325C213.269 45.8665 211.239 46.6205 208.803 46.6205C204.859 46.6205 202.075 44.5325 201.205 40.5305H218.663C220.983 40.5305 222.781 38.8485 222.781 36.2965C222.781 29.8585 218.199 21.3325 207.817 21.3325C198.769 21.3325 192.447 28.6405 192.447 37.5145V37.6305C192.447 47.1425 199.349 53.6965 208.687 53.6965C213.211 53.6965 216.749 52.2465 219.475 49.9265Z" fill="#09161D"/>
<path d="M238.341 53.5805C242.633 53.5805 245.591 52.0145 247.737 49.6365V49.6945C247.737 51.5505 249.419 53.3485 251.971 53.3485C254.349 53.3485 256.263 51.4925 256.263 49.1145V34.9625C256.263 30.7865 255.219 27.3645 252.899 25.0445C250.695 22.8405 247.215 21.5645 242.401 21.5645C238.283 21.5645 235.267 22.1445 232.483 23.1885C231.091 23.7105 230.105 25.0445 230.105 26.6105C230.105 28.6405 231.729 30.2065 233.759 30.2065C234.165 30.2065 234.513 30.1485 235.035 29.9745C236.717 29.4525 238.689 29.1045 241.125 29.1045C245.533 29.1045 247.795 31.1345 247.795 34.7885V35.3105C245.591 34.5565 243.329 34.0345 240.197 34.0345C232.831 34.0345 227.669 37.1665 227.669 43.9525V44.0685C227.669 50.2165 232.483 53.5805 238.341 53.5805ZM241.009 47.4905C238.167 47.4905 236.195 46.0985 236.195 43.7205V43.6045C236.195 40.8205 238.515 39.3125 242.285 39.3125C244.431 39.3125 246.403 39.7765 247.911 40.4725V42.0385C247.911 45.2285 245.127 47.4905 241.009 47.4905Z" fill="#09161D"/>
<path d="M263.849 48.9405C263.849 51.3765 265.821 53.3485 268.257 53.3485C270.693 53.3485 272.665 51.3765 272.665 48.9405V35.6585C272.665 31.4825 274.695 29.3365 278.001 29.3365C281.307 29.3365 283.163 31.4825 283.163 35.6585V48.9405C283.163 51.3765 285.135 53.3485 287.571 53.3485C290.007 53.3485 291.979 51.3765 291.979 48.9405V35.6585C291.979 31.4825 294.009 29.3365 297.315 29.3365C300.621 29.3365 302.477 31.4825 302.477 35.6585V48.9405C302.477 51.3765 304.449 53.3485 306.885 53.3485C309.321 53.3485 311.293 51.3765 311.293 48.9405V32.7585C311.293 25.2765 307.349 21.3325 300.795 21.3325C296.561 21.3325 293.313 23.0725 290.587 26.2625C288.963 23.1305 285.889 21.3325 281.829 21.3325C277.363 21.3325 274.695 23.7105 272.665 26.3205V25.9725C272.665 23.5365 270.693 21.5645 268.257 21.5645C265.821 21.5645 263.849 23.5365 263.849 25.9725V48.9405Z" fill="#09161D"/>
<path d="M319.367 48.9405C319.367 51.3765 321.339 53.3485 323.775 53.3485C326.211 53.3485 328.183 51.3765 328.183 48.9405V14.7205C328.183 12.2845 326.211 10.3125 323.775 10.3125C321.339 10.3125 319.367 12.2845 319.367 14.7205V48.9405Z" fill="#09161D"/>
<path d="M345.279 53.5805C349.571 53.5805 352.529 52.0145 354.675 49.6365V49.6945C354.675 51.5505 356.357 53.3485 358.909 53.3485C361.287 53.3485 363.201 51.4925 363.201 49.1145V34.9625C363.201 30.7865 362.157 27.3645 359.837 25.0445C357.633 22.8405 354.153 21.5645 349.339 21.5645C345.221 21.5645 342.205 22.1445 339.421 23.1885C338.029 23.7105 337.043 25.0445 337.043 26.6105C337.043 28.6405 338.667 30.2065 340.697 30.2065C341.103 30.2065 341.451 30.1485 341.973 29.9745C343.655 29.4525 345.627 29.1045 348.063 29.1045C352.471 29.1045 354.733 31.1345 354.733 34.7885V35.3105C352.529 34.5565 350.267 34.0345 347.135 34.0345C339.769 34.0345 334.607 37.1665 334.607 43.9525V44.0685C334.607 50.2165 339.421 53.5805 345.279 53.5805ZM347.947 47.4905C345.105 47.4905 343.133 46.0985 343.133 43.7205V43.6045C343.133 40.8205 345.453 39.3125 349.223 39.3125C351.369 39.3125 353.341 39.7765 354.849 40.4725V42.0385C354.849 45.2285 352.065 47.4905 347.947 47.4905Z" fill="#09161D"/>
<path d="M370.787 48.9405C370.787 51.3765 372.759 53.3485 375.195 53.3485C377.631 53.3485 379.603 51.3765 379.603 48.9985V48.9405C381.691 51.4345 384.591 53.5805 389.289 53.5805C396.655 53.5805 403.441 47.8965 403.441 37.5145V37.3985C403.441 27.0165 396.539 21.3325 389.289 21.3325C384.707 21.3325 381.749 23.4785 379.603 26.3785V14.7205C379.603 12.2845 377.631 10.3125 375.195 10.3125C372.759 10.3125 370.787 12.2845 370.787 14.7205V48.9405ZM387.027 46.0985C382.909 46.0985 379.487 42.6765 379.487 37.5145V37.3985C379.487 32.2365 382.909 28.8145 387.027 28.8145C391.145 28.8145 394.625 32.2365 394.625 37.3985V37.5145C394.625 42.7345 391.145 46.0985 387.027 46.0985Z" fill="#09161D"/>
<path d="M420.83 53.5805C427.558 53.5805 432.72 50.4485 432.72 43.5465V43.4305C432.72 37.7465 427.674 35.6585 423.324 34.2085C419.96 33.0485 417.002 32.2365 417.002 30.4965V30.3805C417.002 29.1625 418.104 28.2345 420.25 28.2345C422.106 28.2345 424.484 28.9885 426.978 30.2065C427.558 30.4965 427.964 30.6125 428.602 30.6125C430.574 30.6125 432.14 29.1045 432.14 27.1325C432.14 25.6245 431.328 24.4645 430.052 23.8265C427.036 22.3185 423.672 21.4485 420.424 21.4485C414.16 21.4485 409.056 24.9865 409.056 31.3085V31.4245C409.056 37.4565 413.986 39.4865 418.336 40.7625C421.758 41.8065 424.774 42.4445 424.774 44.3585V44.4745C424.774 45.8665 423.614 46.7945 421.062 46.7945C418.568 46.7945 415.61 45.8665 412.652 44.0105C412.188 43.7205 411.55 43.5465 410.912 43.5465C408.94 43.5465 407.432 45.0545 407.432 47.0265C407.432 48.4185 408.186 49.4625 409.114 50.0425C412.884 52.4785 417.002 53.5805 420.83 53.5805Z" fill="#09161D"/>
<path fill-rule="evenodd" clip-rule="evenodd" d="M92 26.4317V41.2995C92 46.7737 87.5868 51.2114 82.1429 51.2114H77.2143V56.8282C77.2143 61.39 73.5366 65.0881 69 65.0881H42.3576C42.2704 65.0881 42.1868 65.1229 42.1252 65.1849L31.9512 75.4154C30.7092 76.6642 28.5857 75.7798 28.5857 74.0136V65.4185C28.5857 65.236 28.4386 65.0881 28.2571 65.0881H23C18.4634 65.0881 14.7857 61.39 14.7857 56.8282V51.2114H9.85714C4.41317 51.2114 0 46.7737 0 41.2995V26.4317C0 20.9575 4.41317 16.5198 9.85714 16.5198V14.5374C9.85714 6.50863 16.3298 0 24.3143 0H67.6857C75.6702 0 82.1429 6.50863 82.1429 14.5374V16.5198C87.5868 16.5198 92 20.9575 92 26.4317ZM19.7143 14.5374C19.7143 11.9828 21.7738 9.91189 24.3143 9.91189H67.6857C70.2262 9.91189 72.2857 11.9828 72.2857 14.5374V16.5198H19.7143V14.5374ZM46 41.6299L43.6168 49.3517C43.2755 50.4577 42.258 51.2114 41.1064 51.2114H19.7143V56.8282C19.7143 58.6529 21.1853 60.1321 23 60.1321H31.8714C32.7788 60.1321 33.5143 60.8718 33.5143 61.7841V66.8348L39.6987 60.6159C40.0069 60.3062 40.4247 60.1321 40.8605 60.1321H69C70.8147 60.1321 72.2857 58.6529 72.2857 56.8282V51.2114H50.8936C49.742 51.2114 48.7245 50.4577 48.3832 49.3517L46 41.6299ZM6.57136 26.4317C6.57136 24.6069 8.04239 23.1277 9.85707 23.1277V19.8237C6.22779 19.8237 3.28564 22.7822 3.28564 26.4317V41.2995C3.28564 42.2119 4.02116 42.9515 4.9285 42.9515C5.83584 42.9515 6.57136 42.2119 6.57136 41.2995V26.4317ZM85.4285 26.4317C85.4285 24.6069 83.9575 23.1277 82.1428 23.1277V19.8237C85.7721 19.8237 88.7142 22.7822 88.7142 26.4317V41.2995C88.7142 42.2119 87.9787 42.9515 87.0714 42.9515C86.164 42.9515 85.4285 42.2119 85.4285 41.2995V26.4317ZM14.7856 21.4758H77.2142V41.2996C77.2142 44.0367 75.0076 46.2556 72.2856 46.2556H52.3972C52.1099 46.2556 51.8558 46.0678 51.77 45.792L48.5087 35.3058C47.7398 32.8335 44.2601 32.8335 43.4912 35.3058L40.2298 45.792C40.144 46.0678 39.89 46.2556 39.6026 46.2556H19.7142C16.9922 46.2556 14.7856 44.0367 14.7856 41.2996V21.4758Z" fill="#09161D"/>
<path fill-rule="evenodd" clip-rule="evenodd" d="M29.5714 24.7798C25.9421 24.7798 23 27.7382 23 31.3877V36.3437C23 39.9932 25.9421 42.9516 29.5714 42.9516C33.2007 42.9516 36.1429 39.9932 36.1429 36.3437V31.3877C36.1429 27.7382 33.2007 24.7798 29.5714 24.7798ZM26.4395 28.5534C25.9345 29.1344 25.6286 29.8947 25.6286 30.7269C25.6286 32.5517 27.0996 34.0309 28.9143 34.0309C29.8216 34.0309 30.6431 33.6611 31.2376 33.0632C31.4574 32.8422 31.6462 32.59 31.7969 32.3139C32.0539 31.8429 32.2001 31.302 32.2001 30.7268C32.2001 28.9021 30.7291 27.4229 28.9144 27.4229C27.9273 27.4229 27.0418 27.8605 26.4395 28.5534Z" fill="#09161D"/>
<path fill-rule="evenodd" clip-rule="evenodd" d="M62.4286 24.7798C58.7993 24.7798 55.8571 27.7382 55.8571 31.3877V36.3437C55.8571 39.9932 58.7993 42.9516 62.4286 42.9516C66.0579 42.9516 69 39.9932 69 36.3437V31.3877C69 27.7382 66.0579 24.7798 62.4286 24.7798ZM58.8439 29.2253C58.6149 29.6758 58.4857 30.1862 58.4857 30.7269C58.4857 32.5517 59.9567 34.0309 61.7714 34.0309C62.6788 34.0309 63.5002 33.6611 64.0948 33.0632C64.4732 32.6827 64.7597 32.2098 64.9181 31.681C65.0086 31.3789 65.0572 31.0586 65.0572 30.7268C65.0572 28.9021 63.5862 27.4229 61.7715 27.4229C60.8641 27.4229 60.0427 27.7927 59.4481 28.3907C59.2059 28.6342 59.0013 28.9156 58.8439 29.2253Z" fill="#09161D"/>
</svg>
