<svg width="282" height="206" viewBox="0 0 282 206" fill="none" xmlns="http://www.w3.org/2000/svg">
<path d="M11.9086 205.458C17.8886 205.458 22.4768 202.674 22.4768 196.539V196.436C22.4768 191.384 17.9917 189.528 14.1253 188.24C11.1353 187.208 8.50612 186.487 8.50612 184.94V184.837C8.50612 183.754 9.48561 182.93 11.393 182.93C13.0427 182.93 15.1564 183.6 17.3731 184.682C17.8886 184.94 18.2495 185.043 18.8166 185.043C20.5693 185.043 21.9613 183.703 21.9613 181.95C21.9613 180.61 21.2395 179.579 20.1054 179.012C17.4247 177.671 14.4346 176.898 11.5477 176.898C5.98006 176.898 1.44346 180.043 1.44346 185.662V185.765C1.44346 191.126 5.8254 192.931 9.69182 194.065C12.7334 194.993 15.4141 195.56 15.4141 197.261V197.364C15.4141 198.602 14.3831 199.426 12.1148 199.426C9.89803 199.426 7.26887 198.602 4.6397 196.952C4.22728 196.694 3.66021 196.539 3.09313 196.539C1.34036 196.539 0 197.88 0 199.633C0 200.87 0.670179 201.798 1.49501 202.313C4.84591 204.478 8.50612 205.458 11.9086 205.458Z" fill="white"/>
<path d="M36.9211 205.406C38.6223 205.406 39.9627 205.2 41.4061 204.633C42.4887 204.221 43.4166 203.087 43.4166 201.695C43.4166 199.89 41.9216 198.447 40.1689 198.447C40.0142 198.447 39.4987 198.498 39.2409 198.498C37.4881 198.498 36.7149 197.622 36.7149 195.818V184.012H40.1689C42.0247 184.012 43.5198 182.517 43.5198 180.661C43.5198 178.805 42.0247 177.31 40.1689 177.31H36.7149V173.856C36.7149 171.691 34.9621 169.938 32.7969 169.938C30.6317 169.938 28.8789 171.691 28.8789 173.856V177.31H28.6212C26.7653 177.31 25.2703 178.805 25.2703 180.661C25.2703 182.517 26.7653 184.012 28.6212 184.012H28.8789V197.107C28.8789 203.499 32.1267 205.406 36.9211 205.406Z" fill="white"/>
<path d="M48.9863 201.334C48.9863 203.499 50.7391 205.252 52.9043 205.252C55.0695 205.252 56.8222 203.499 56.8222 201.334V194.013C56.8222 188.446 59.039 185.404 63.0085 184.476C64.6066 184.115 65.947 182.878 65.947 180.816C65.947 178.599 64.5551 177.001 62.1321 177.001C59.8123 177.001 57.9564 179.476 56.8222 182.156V180.919C56.8222 178.754 55.0695 177.001 52.9043 177.001C50.7391 177.001 48.9863 178.754 48.9863 180.919V201.334Z" fill="white"/>
<path d="M76.1193 188.961C76.7379 185.404 78.8516 183.084 82.0994 183.084C85.3987 183.084 87.4608 185.456 87.9248 188.961H76.1193ZM92.4614 202.21C93.0284 201.695 93.4924 200.921 93.4924 199.89C93.4924 198.138 92.2036 196.797 90.4508 196.797C89.626 196.797 89.1105 197.003 88.5434 197.416C86.9453 198.602 85.1409 199.272 82.9757 199.272C79.4702 199.272 76.9957 197.416 76.2224 193.859H91.7396C93.8017 193.859 95.3998 192.364 95.3998 190.095C95.3998 184.373 91.3272 176.795 82.0994 176.795C74.0572 176.795 68.438 183.291 68.438 191.178V191.281C68.438 199.736 74.5727 205.561 82.8726 205.561C86.8937 205.561 90.0384 204.272 92.4614 202.21Z" fill="white"/>
<path d="M109.23 205.458C113.045 205.458 115.674 204.066 117.582 201.952V202.004C117.582 203.654 119.077 205.252 121.345 205.252C123.459 205.252 125.16 203.602 125.16 201.488V188.91C125.16 185.198 124.232 182.156 122.17 180.094C120.211 178.135 117.118 177.001 112.839 177.001C109.179 177.001 106.498 177.517 104.024 178.445C102.786 178.909 101.91 180.094 101.91 181.486C101.91 183.291 103.353 184.682 105.158 184.682C105.519 184.682 105.828 184.631 106.292 184.476C107.787 184.012 109.54 183.703 111.705 183.703C115.623 183.703 117.633 185.507 117.633 188.755V189.219C115.674 188.549 113.664 188.085 110.88 188.085C104.333 188.085 99.7447 190.869 99.7447 196.9V197.003C99.7447 202.468 104.024 205.458 109.23 205.458ZM111.602 200.045C109.076 200.045 107.323 198.808 107.323 196.694V196.591C107.323 194.116 109.385 192.776 112.736 192.776C114.643 192.776 116.396 193.189 117.736 193.807V195.199C117.736 198.034 115.262 200.045 111.602 200.045Z" fill="white"/>
<path d="M131.903 201.334C131.903 203.499 133.656 205.252 135.821 205.252C137.986 205.252 139.739 203.499 139.739 201.334V189.528C139.739 185.817 141.543 183.909 144.482 183.909C147.42 183.909 149.07 185.817 149.07 189.528V201.334C149.07 203.499 150.823 205.252 152.988 205.252C155.153 205.252 156.906 203.499 156.906 201.334V189.528C156.906 185.817 158.71 183.909 161.648 183.909C164.587 183.909 166.237 185.817 166.237 189.528V201.334C166.237 203.499 167.989 205.252 170.155 205.252C172.32 205.252 174.073 203.499 174.073 201.334V186.951C174.073 180.3 170.567 176.795 164.742 176.795C160.978 176.795 158.091 178.341 155.668 181.177C154.225 178.393 151.493 176.795 147.884 176.795C143.915 176.795 141.543 178.909 139.739 181.228V180.919C139.739 178.754 137.986 177.001 135.821 177.001C133.656 177.001 131.903 178.754 131.903 180.919V201.334Z" fill="white"/>
<path d="M181.248 201.334C181.248 203.499 183.001 205.252 185.166 205.252C187.332 205.252 189.084 203.499 189.084 201.334V170.918C189.084 168.753 187.332 167 185.166 167C183.001 167 181.248 168.753 181.248 170.918V201.334Z" fill="white"/>
<path d="M204.28 205.458C208.095 205.458 210.724 204.066 212.631 201.952V202.004C212.631 203.654 214.126 205.252 216.395 205.252C218.508 205.252 220.209 203.602 220.209 201.488V188.91C220.209 185.198 219.281 182.156 217.219 180.094C215.26 178.135 212.167 177.001 207.888 177.001C204.228 177.001 201.548 177.517 199.073 178.445C197.836 178.909 196.959 180.094 196.959 181.486C196.959 183.291 198.403 184.682 200.207 184.682C200.568 184.682 200.877 184.631 201.341 184.476C202.836 184.012 204.589 183.703 206.754 183.703C210.672 183.703 212.683 185.507 212.683 188.755V189.219C210.724 188.549 208.713 188.085 205.929 188.085C199.382 188.085 194.794 190.869 194.794 196.9V197.003C194.794 202.468 199.073 205.458 204.28 205.458ZM206.651 200.045C204.125 200.045 202.372 198.808 202.372 196.694V196.591C202.372 194.116 204.434 192.776 207.785 192.776C209.693 192.776 211.446 193.189 212.786 193.807V195.199C212.786 198.034 210.311 200.045 206.651 200.045Z" fill="white"/>
<path d="M226.952 201.334C226.952 203.499 228.705 205.252 230.87 205.252C233.035 205.252 234.788 203.499 234.788 201.385V201.334C236.644 203.551 239.222 205.458 243.397 205.458C249.945 205.458 255.976 200.406 255.976 191.178V191.075C255.976 181.847 249.841 176.795 243.397 176.795C239.325 176.795 236.696 178.702 234.788 181.28V170.918C234.788 168.753 233.035 167 230.87 167C228.705 167 226.952 168.753 226.952 170.918V201.334ZM241.387 198.808C237.727 198.808 234.685 195.766 234.685 191.178V191.075C234.685 186.487 237.727 183.445 241.387 183.445C245.047 183.445 248.14 186.487 248.14 191.075V191.178C248.14 195.818 245.047 198.808 241.387 198.808Z" fill="white"/>
<path d="M271.432 205.458C277.412 205.458 282 202.674 282 196.539V196.436C282 191.384 277.515 189.528 273.649 188.24C270.659 187.208 268.029 186.487 268.029 184.94V184.837C268.029 183.754 269.009 182.93 270.916 182.93C272.566 182.93 274.68 183.6 276.896 184.682C277.412 184.94 277.773 185.043 278.34 185.043C280.093 185.043 281.484 183.703 281.484 181.95C281.484 180.61 280.763 179.579 279.629 179.012C276.948 177.671 273.958 176.898 271.071 176.898C265.503 176.898 260.967 180.043 260.967 185.662V185.765C260.967 191.126 265.349 192.931 269.215 194.065C272.257 194.993 274.937 195.56 274.937 197.261V197.364C274.937 198.602 273.906 199.426 271.638 199.426C269.421 199.426 266.792 198.602 264.163 196.952C263.751 196.694 263.183 196.539 262.616 196.539C260.864 196.539 259.523 197.88 259.523 199.633C259.523 200.87 260.193 201.798 261.018 202.313C264.369 204.478 268.029 205.458 271.432 205.458Z" fill="white"/>
<path fill-rule="evenodd" clip-rule="evenodd" d="M230 51.1245V79.882C230 90.4702 221.461 99.0537 210.929 99.0537H201.393V109.918C201.393 118.741 194.277 125.894 185.5 125.894H133.953C133.784 125.894 133.622 125.961 133.503 126.081L113.819 145.869C111.416 148.285 107.307 146.574 107.307 143.158V126.533C107.307 126.18 107.023 125.894 106.671 125.894H96.5C87.7226 125.894 80.6071 118.741 80.6071 109.918V99.0537H71.0714C60.5385 99.0537 52 90.4702 52 79.882V51.1245C52 40.5363 60.5385 31.9528 71.0714 31.9528V28.1185C71.0714 12.5891 83.5947 0 99.0429 0H182.957C198.405 0 210.929 12.5891 210.929 28.1185V31.9528C221.461 31.9528 230 40.5363 230 51.1245ZM90.1429 28.1185C90.1429 23.1773 94.1276 19.1717 99.0429 19.1717H182.957C187.872 19.1717 191.857 23.1773 191.857 28.1185V31.9528H90.1429V28.1185ZM141 80.5211L136.389 95.4566C135.729 97.5957 133.76 99.0537 131.532 99.0537H90.1429V109.918C90.1429 113.447 92.989 116.308 96.5 116.308H113.664C115.42 116.308 116.843 117.739 116.843 119.503V129.273L128.808 117.244C129.405 116.645 130.213 116.308 131.056 116.308H185.5C189.011 116.308 191.857 113.447 191.857 109.918V99.0537H150.468C148.24 99.0537 146.271 97.5957 145.611 95.4566L141 80.5211ZM64.7142 51.1244C64.7142 47.595 67.5603 44.7338 71.0713 44.7338V38.3433C64.0494 38.3433 58.357 44.0656 58.357 51.1244V79.8819C58.357 81.6466 59.7801 83.0772 61.5356 83.0772C63.2911 83.0772 64.7142 81.6466 64.7142 79.8819V51.1244ZM217.286 51.1244C217.286 47.595 214.439 44.7338 210.928 44.7338V38.3433C217.95 38.3433 223.643 44.0656 223.643 51.1244V79.8819C223.643 81.6466 222.22 83.0772 220.464 83.0772C218.709 83.0772 217.286 81.6466 217.286 79.8819V51.1244ZM80.607 41.5388H201.393V79.8821C201.393 85.1763 197.123 89.468 191.857 89.468H153.377C152.821 89.468 152.33 89.1048 152.164 88.5714L145.854 68.2888C144.366 63.5068 137.634 63.5068 136.146 68.2888L129.836 88.5714C129.67 89.1048 129.178 89.468 128.622 89.468H90.1427C84.8763 89.468 80.607 85.1763 80.607 79.8821V41.5388Z" fill="white"/>
<path fill-rule="evenodd" clip-rule="evenodd" d="M109.214 47.9293C102.192 47.9293 96.5 53.6515 96.5 60.7105V70.2963C96.5 77.3552 102.192 83.0774 109.214 83.0774C116.236 83.0774 121.929 77.3552 121.929 70.2963V60.7105C121.929 53.6515 116.236 47.9293 109.214 47.9293ZM103.155 55.2284C102.178 56.352 101.586 57.8227 101.586 59.4323C101.586 62.9618 104.432 65.8229 107.943 65.8229C109.698 65.8229 111.288 65.1076 112.438 63.9512C112.863 63.5237 113.229 63.036 113.52 62.5019C114.017 61.5908 114.3 60.5447 114.3 59.4321C114.3 55.9027 111.454 53.0416 107.943 53.0416C106.033 53.0416 104.32 53.8881 103.155 55.2284Z" fill="white"/>
<path fill-rule="evenodd" clip-rule="evenodd" d="M172.786 47.9293C165.764 47.9293 160.071 53.6515 160.071 60.7105V70.2963C160.071 77.3552 165.764 83.0774 172.786 83.0774C179.808 83.0774 185.5 77.3552 185.5 70.2963V60.7105C185.5 53.6515 179.808 47.9293 172.786 47.9293ZM165.85 56.5278C165.407 57.3993 165.157 58.3865 165.157 59.4323C165.157 62.9618 168.003 65.8229 171.514 65.8229C173.27 65.8229 174.859 65.1076 176.009 63.9512C176.742 63.2152 177.296 62.3005 177.602 61.2778C177.777 60.6935 177.872 60.0739 177.872 59.4321C177.872 55.9027 175.025 53.0416 171.514 53.0416C169.759 53.0416 168.17 53.7569 167.019 54.9135C166.55 55.3846 166.155 55.9289 165.85 56.5278Z" fill="white"/>
</svg>
