<svg xmlns="http://www.w3.org/2000/svg" width="735.44" height="494.5" viewBox="0 0 735.44 494.5"><defs><style>.a{fill:#2FB7EC;fill-rule:evenodd;}</style></defs><title>Artboard 1</title><path class="a" d="M657.72,145.18c-19.23,0-37.1,15.58-39.76,34.61L598.44,321.52q-3.24,23.16-22.29,40.18t-42.89,17q-23.16,0-37.51-16.7t-11.06-40.51l11.78-86c.36-17.17-12.58-30.6-30.42-30.6H419.33c-17.84,0-34.54,13.43-38.93,30.6l-12.17,86q-3.3,23.85-22.32,40.51t-42.16,16.7q-23.17,0-37.82-17t-11.44-40.18l26.17-188c2.76-18.31-8.13-37.45-24.76-45.21,0,0-197-81.75-209.89-87C33-4,18.28,7.84,13.24,27.65L1.2,75c-5,19.81,6.32,42.34,25.24,50.05L158.5,179.42l-19.78,142.1q-10,71.49,33.71,122.24t115.2,50.74q66,0,120.57-44.27,43.53,44.28,108.94,44.27,71.52,0,129.32-50.74t67.75-122.24s20.7-150,21.08-152.59c1.8-13.07-12.42-23.75-31.64-23.75Z"/></svg>