<?xml version="1.0" encoding="UTF-8"?>
<svg width="160px" height="78px" viewBox="0 0 160 78" version="1.1" xmlns="http://www.w3.org/2000/svg" xmlns:xlink="http://www.w3.org/1999/xlink">
    <!-- Generator: Sketch 52.4 (67378) - http://www.bohemiancoding.com/sketch -->
    <title>Group 5</title>
    <desc>Created with Sketch.</desc>
    <g id="Media-Kit-Working" stroke="none" stroke-width="1" fill="none" fill-rule="evenodd">
        <g id="T100230:-Wish-Press-Room/Media-Kit" transform="translate(-1008.000000, -406.000000)" fill="#F0F5F7">
            <rect x="0" y="0" width="2256" height="2221"></rect>
        </g>
        <g id="Media-Kit-Copy-13" transform="translate(-942.000000, -341.000000)">
            <rect fill="#FFFFFF" x="0" y="0" width="1680" height="2076"></rect>
            <rect id="Rectangle" stroke="#D4E3EB" stroke-width="0.5" fill="#FFFFFF" x="839.25" y="302.25" width="370.5" height="152.5" rx="4"></rect>
            <g id="Group-5" transform="translate(942.000000, 341.000000)">
                <g id="Group" fill="#2FB7EC">
                    <path d="M80.1865216,11.8166158 C79.2169236,10.666534 78.8532037,9.25686651 79.0972916,7.58614949 C79.3404147,5.91836013 80.1151283,4.50674087 81.4199854,3.35665909 C82.7258072,2.20657731 84.2019116,1.63080451 85.853605,1.63080451 C87.5033688,1.63080451 88.8140145,2.20657731 89.7831301,3.35665909 C90.7536929,4.50674087 91.116448,5.91836013 90.8733249,7.58614949 C90.6302018,9.25686651 89.8550058,10.666534 88.5511135,11.8166158 C87.2443269,12.9666976 85.7658106,13.5424704 84.1170115,13.5424704 C82.4658006,13.5424704 81.1561196,12.9666976 80.1865216,11.8166158" id="Fill-1"></path>
                    <path d="M66.3458716,17.04151 C64.4081227,17.04151 62.6059246,18.6302526 62.3381997,20.5703142 L60.3700605,35.0226995 C60.1525039,36.5972918 59.4033568,37.9630444 58.1231015,39.1199573 C56.8423638,40.2778462 55.4000264,40.8565467 53.7994661,40.8565467 C52.242803,40.8565467 50.9813608,40.2895569 50.0175514,39.1541134 C49.0508477,38.0201337 48.6803744,36.6441343 48.9027548,35.0226995 L50.0899094,26.2524111 C50.1265709,24.5016714 48.8217138,23.1320152 47.0233748,23.1320152 L42.3133474,23.1320152 C40.5150083,23.1320152 38.8319598,24.5016714 38.3886461,26.2524111 L37.1624181,35.0226995 C36.9400377,36.6441343 36.1894434,38.0201337 34.9116,39.1541134 C33.6332743,40.2895569 32.2165034,40.8565467 30.6617699,40.8565467 C29.104142,40.8565467 27.8335345,40.2778462 26.8489824,39.1199573 C25.8634656,37.9630444 25.4799679,36.5972918 25.6955949,35.0226995 L28.3337699,15.8465375 C28.6125896,13.9796673 27.5146766,12.0283831 25.8378991,11.2364515 C25.8378991,11.2364515 5.97319925,2.90092028 4.67895472,2.3651588 C3.36830903,1.82549379 1.8835216,3.03608051 1.37460324,5.05616475 L0.160917348,9.88045773 C-0.347518632,11.900542 0.798150678,14.1977779 2.70599157,14.9843421 L16.0193925,20.5322546 L14.0252044,35.0226995 C13.3551687,39.8826123 14.4868488,44.0403751 17.4236213,47.4881807 C20.3584643,50.938914 24.2286558,52.6623289 29.0366078,52.6623289 C33.4750513,52.6623289 37.5271028,51.1584884 41.191315,48.1478797 C44.117475,51.1584884 47.7797577,52.6623289 52.174304,52.6623289 C56.9808089,52.6623289 61.3261516,50.938914 65.2108148,47.4881807 C69.0954779,44.0403751 71.3723449,39.8826123 72.0414158,35.0226995 C72.0414158,35.0226995 74.1282223,19.7310521 74.1658485,19.4631714 C74.3477084,18.1305989 72.914054,17.04151 70.9767875,17.04151 L66.3458716,17.04151 Z" id="Fill-2"></path>
                    <path d="M85.7219133,17.0371185 L81.56036,17.0371185 C79.8189427,17.0371185 78.1995692,18.464352 77.9593405,20.2077725 C77.9593405,20.2077725 73.7673968,50.3382561 73.7476189,50.4856149 C73.5836073,51.6825392 74.8725456,52.6623289 76.6129981,52.6623289 L80.7735867,52.6623289 C82.5145217,52.6623289 84.1343775,51.2355834 84.3746062,49.4916749 C84.3746062,49.4916749 88.572821,19.3104452 88.5858454,19.2143204 C88.7508218,18.0164202 87.4618835,17.0371185 85.7219133,17.0371185" id="Fill-3"></path>
                    <path d="M157.106518,20.8738148 C154.721114,18.0388656 151.49105,16.621391 147.416326,16.621391 C143.340638,16.621391 139.534121,17.5196942 135.782597,20.7806176 C135.782597,20.7806176 138.437656,2.25195602 138.439585,2.24024538 C138.606009,1.01941186 137.291021,0.0205924265 135.515837,0.0205924265 L131.270348,0.0205924265 C129.493717,0.0205924265 127.840094,1.47612656 127.596971,3.25565488 C127.596971,3.25565488 120.777465,50.4778078 120.7765,50.4865908 C120.609112,51.7074243 121.923134,52.7072197 123.700248,52.7072197 L127.944772,52.7072197 C129.688601,52.7072197 131.309904,51.3038954 131.600301,49.5687699 L131.60609,49.5687699 L133.742582,34.838257 C134.175283,31.8618044 135.309375,29.6050678 137.148717,28.069511 C138.98613,26.5334663 140.991895,25.7654439 143.160707,25.7654439 C147.547053,25.7654439 149.317414,28.6960299 148.46793,34.5542742 C148.46793,34.5542742 146.191545,50.4377965 146.191545,50.4426759 C146.023675,51.6630215 147.339144,52.6623289 149.116258,52.6623289 L153.359335,52.6623289 C155.136449,52.6623289 156.789107,51.2067948 157.034642,49.4267785 L159.657863,32.2150752 C160.342853,27.4903226 159.491922,23.7087639 157.106518,20.8738148" id="Fill-4"></path>
                    <path d="M116.126288,27.2961212 C116.739402,27.2668447 117.270993,26.9223569 117.849375,26.1797075 L119.835363,23.6272774 C120.675681,22.5469715 120.696424,20.8830857 119.885531,19.7461784 C119.530012,19.1303942 118.495774,18.532176 117.551742,18.018372 L117.445135,17.9593309 C114.458676,16.3286252 111.523833,15.7143049 107.632417,15.9055786 C103.406224,16.1139303 99.7998978,17.3694077 96.9142583,19.6383429 C94.0054642,21.92582 92.3619715,24.8207861 92.0305715,28.2422428 C91.6938654,31.7154215 92.8583478,34.3083509 95.4888045,35.9493034 C96.738187,36.7441626 97.8804796,37.3501879 98.8823976,37.751765 C99.8790093,38.1528542 101.344501,38.6232313 103.239318,39.1531375 C105.081072,39.6698692 106.483371,40.2558888 107.405695,40.8911906 C108.251802,41.4767223 108.629511,42.1032412 108.56053,42.8083189 C108.489136,43.5456009 108.111427,44.1408914 107.40666,44.6283465 C106.673431,45.1358073 105.695633,45.4232057 104.50076,45.4817589 C101.270214,45.6413163 98.2302103,44.8815889 95.4675795,43.2255102 L93.416952,42.0827476 C93.087964,41.898793 92.7049487,41.8114512 92.3093913,41.830481 C91.6649221,41.8626853 91.0614559,42.1744809 90.6933946,42.6653516 L87.7450447,46.6006123 C87.4430704,47.0031653 87.3239208,47.486229 87.4097857,47.9600217 C87.4913091,48.4186881 87.7542101,48.8163617 88.151697,49.0837545 L88.1570033,49.088634 C89.117436,49.8503131 90.1208011,50.5168433 91.1371907,51.0701707 C92.4676142,51.8064768 93.8978919,52.4056708 95.3879856,52.8482352 C98.1742534,53.6767625 100.937849,54.0310092 103.599178,53.8997525 C107.610227,53.7021355 111.076178,52.4290921 113.902484,50.11673 C116.746156,47.7887537 118.365529,44.761067 118.720084,41.119548 C119.07898,37.4228914 118.026411,34.8006854 115.589392,33.3236818 C114.340974,32.5785928 113.237755,32.0267292 112.309642,31.6841931 C111.387318,31.3460486 109.825831,30.8693282 107.670525,30.2672065 C105.540786,29.6748436 104.012102,29.132251 103.125474,28.6569944 C102.34449,28.2388272 102.015502,27.6781807 102.091719,26.8925923 C102.234023,25.4209561 103.735694,24.6046274 106.552835,24.4665395 C108.818607,24.3538246 111.091132,24.8808031 113.297571,26.0245416 C113.75005,26.2758323 114.250285,26.5764052 114.70807,26.8711228 C114.735567,26.8882009 114.75245,26.8979597 114.75245,26.8979597 C114.75245,26.8979597 114.75245,26.8979597 114.751485,26.8964959 C115.274393,27.1902376 115.710953,27.3171028 116.126288,27.2961212" id="Fill-5"></path>
                </g>
                <g id="Group" transform="translate(16.000000, 58.000000)" fill="#7E9AA6" font-family="ProximaNova-Medium, Proxima Nova" font-size="16" font-weight="400" letter-spacing="0.319999981">
                    <text id="shopping-made-fun">
                        <tspan x="0.2" y="15.0630435">shopping made fun</tspan>
                    </text>
                </g>
            </g>
        </g>
    </g>
</svg>