<svg xmlns="http://www.w3.org/2000/svg" viewBox="0 0 143 48"><path d="M71.68 10.493c-.866-1.021-1.191-2.273-.973-3.757.217-1.48.91-2.734 2.076-3.755 1.168-1.022 2.487-1.533 3.964-1.533 1.474 0 2.646.511 3.512 1.533.868 1.02 1.192 2.274.975 3.755-.217 1.484-.91 2.736-2.076 3.757-1.168 1.021-2.49 1.532-3.964 1.532-1.476 0-2.647-.511-3.513-1.532m-12.373 4.639c-1.732 0-3.343 1.411-3.582 3.134l-1.76 12.833c-.194 1.398-.864 2.611-2.008 3.638-1.145 1.029-2.435 1.542-3.865 1.542-1.392 0-2.52-.503-3.381-1.511-.864-1.007-1.195-2.23-.997-3.669l1.062-7.788c.032-1.554-1.134-2.77-2.742-2.77h-4.21c-1.608 0-3.112 1.216-3.508 2.77L33.22 31.1c-.198 1.44-.87 2.662-2.012 3.669-1.142 1.008-2.409 1.511-3.799 1.511-1.392 0-2.528-.513-3.408-1.542-.881-1.027-1.224-2.24-1.031-3.638l2.358-17.028c.25-1.657-.732-3.39-2.23-4.093 0 0-17.758-7.402-18.915-7.878-1.172-.479-2.5.596-2.954 2.39L.144 8.774c-.455 1.793.57 3.833 2.275 4.532l11.901 4.926-1.783 12.867c-.598 4.316.413 8.008 3.038 11.07 2.624 3.063 6.084 4.594 10.382 4.594 3.967 0 7.59-1.336 10.865-4.01 2.616 2.674 5.89 4.01 9.818 4.01 4.297 0 8.181-1.53 11.654-4.595 3.472-3.061 5.508-6.753 6.106-11.069 0 0 1.865-13.578 1.899-13.816.162-1.184-1.12-2.15-2.851-2.15h-4.14zm17.321-.004h-3.72c-1.557 0-3.004 1.268-3.22 2.816L65.926 44.83c-.147 1.063 1.005 1.933 2.561 1.933h3.72c1.556 0 3.004-1.267 3.219-2.816l3.764-26.885c.148-1.064-1.005-1.934-2.56-1.934m63.811 3.407c-2.132-2.517-5.02-3.776-8.662-3.776-3.643 0-7.046.798-10.4 3.694l2.376-16.464c.148-1.084-1.027-1.97-2.614-1.97h-3.795c-1.588 0-3.067 1.292-3.284 2.872l-6.097 41.94c-.15 1.084 1.025 1.971 2.614 1.971h3.794c1.559 0 3.008-1.246 3.268-2.786h.005l1.91-13.08c.387-2.644 1.4-4.648 3.045-6.011 1.642-1.364 3.435-2.046 5.374-2.046 3.921 0 5.504 2.602 4.744 7.804l-2.035 14.109c-.15 1.083 1.026 1.97 2.615 1.97h3.793c1.588 0 3.066-1.292 3.285-2.872l2.345-15.284c.612-4.195-.148-7.553-2.28-10.07m-36.634 5.702c.548-.026 1.023-.332 1.54-.991l1.776-2.267c.751-.959.77-2.436.045-3.446-.318-.547-1.243-1.078-2.087-1.534l-.095-.053c-2.67-1.448-5.293-1.993-8.772-1.823-3.778.185-7.001 1.3-9.58 3.314-2.601 2.031-4.07 4.602-4.367 7.64-.3 3.084.74 5.387 3.092 6.844 1.117.706 2.138 1.244 3.033 1.6.891.357 2.201.774 3.895 1.245 1.647.459 2.9.979 3.725 1.543.756.52 1.094 1.076 1.032 1.703-.064.654-.402 1.183-1.032 1.616-.655.45-1.53.705-2.597.757-2.888.142-5.606-.532-8.075-2.003l-1.833-1.015a1.853 1.853 0 0 0-.99-.224 1.938 1.938 0 0 0-1.445.742l-2.636 3.494c-.27.357-.376.786-.3 1.207.074.407.309.76.664.998l.005.004a18.705 18.705 0 0 0 2.664 1.76 19.146 19.146 0 0 0 3.8 1.579c2.49.735 4.96 1.05 7.34.933 3.585-.175 6.684-1.306 9.21-3.359 2.542-2.067 3.99-4.756 4.307-7.99.32-3.282-.62-5.61-2.799-6.922-1.116-.661-2.102-1.151-2.932-1.455-.824-.3-2.22-.724-4.147-1.259-1.903-.526-3.27-1.007-4.063-1.43-.698-.37-.992-.869-.924-1.566.128-1.307 1.47-2.032 3.988-2.154 2.026-.1 4.057.367 6.03 1.383a23.406 23.406 0 0 1 1.3.776v-.002c.467.261.857.374 1.228.355" fill="#2FB7EC" fill-rule="evenodd"/></svg>