<?xml version="1.0" encoding="UTF-8"?>
<svg width="800px" height="800px" viewBox="0 0 800 800" version="1.1" xmlns="http://www.w3.org/2000/svg" xmlns:xlink="http://www.w3.org/1999/xlink">
    <!-- Generator: Sketch 52.4 (67378) - http://www.bohemiancoding.com/sketch -->
    <title>Group</title>
    <desc>Created with Sketch.</desc>
    <g id="Page-1" stroke="none" stroke-width="1" fill="none" fill-rule="evenodd">
        <g id="icon_wish" transform="translate(-50.000000, -50.000000)">
            <g id="Group" transform="translate(50.000000, 50.000000)">
                <path d="M609.375,0 C725,0 800,75 800,190.625 L800,609.375 C800,725 725,800 609.375,800 L190.625,800 C75,800 0,725 0,609.375 L0,190.625 C0,75 75,5.75430051e-23 190.625,5.75430051e-23 L609.375,0 Z" id="App-Icon-Shape-Copy" fill="#2fb7ec"></path>
                <path d="M606.498674,315.872141 C590.765648,315.872141 576.133189,328.624626 573.95947,344.197072 L557.979697,460.203174 C556.213305,472.842078 550.130808,483.804672 539.736122,493.090957 C529.33752,502.385075 517.626853,507.030176 504.631538,507.030176 C491.992634,507.030176 481.750696,502.479074 473.925307,493.36512 C466.076418,484.262916 463.068461,473.218073 464.874019,460.203174 L474.512799,389.806007 C474.810461,375.753207 464.216028,364.75928 449.614902,364.75928 L411.373112,364.75928 C396.771986,364.75928 383.10693,375.753207 379.507565,389.806007 L369.551539,460.203174 C367.745982,473.218073 361.651735,484.262916 351.276632,493.36512 C340.897613,502.479074 329.394526,507.030176 316.771289,507.030176 C304.124552,507.030176 293.808198,502.385075 285.814395,493.090957 C277.812759,483.804672 274.699053,472.842078 276.449778,460.203174 L297.869724,306.28036 C300.133525,291.295406 291.219318,275.632879 277.605179,269.276219 C277.605179,269.276219 116.319136,202.368753 105.810868,198.068314 C95.1694362,193.736542 83.1141074,203.453654 78.9820827,219.668424 L69.1278893,258.391957 C64.9997813,274.606727 74.3017325,293.046131 89.7919292,299.359708 L197.886477,343.891576 L181.695207,460.203174 C176.255035,499.21262 185.443404,532.586063 209.287732,560.260836 C233.116394,587.95911 264.539364,601.79258 303.576226,601.79258 C339.612965,601.79258 372.512497,589.721585 402.263075,565.556095 C426.021237,589.721585 455.756148,601.79258 491.436475,601.79258 C530.461587,601.79258 565.74242,587.95911 597.282888,560.260836 C628.823357,532.586063 647.309761,499.21262 652.742101,460.203174 C652.742101,460.203174 669.68536,337.460501 669.990856,335.310281 C671.467418,324.614016 659.82725,315.872141 644.09814,315.872141 L606.498674,315.872141 Z" id="Fill-2-Copy-2" fill="#FFFFFF"></path>
            </g>
        </g>
    </g>
</svg>