<?xml version="1.0" encoding="utf-8"?>
<!-- Generator: Adobe Illustrator 21.1.0, SVG Export Plug-In . SVG Version: 6.00 Build 0)  -->
<svg version="1.1" xmlns="http://www.w3.org/2000/svg" xmlns:xlink="http://www.w3.org/1999/xlink" x="0px" y="0px"
	 viewBox="0 0 414.5 223.8" style="enable-background:new 0 0 414.5 223.8;" xml:space="preserve">
<style type="text/css">
	.st0{fill:#FF4500;}
	.st1{fill:#FFFFFF;}
	.st2{display:none;}
	.st3{display:inline;fill:none;stroke:#D8D8D8;stroke-width:0.5;stroke-miterlimit:10;}
</style>
<g id="Artwork">
	<g id="XMLID_66_">
		<g>
			<circle class="st0" cx="111.1" cy="112" r="56"/>
			<path class="st1" d="M148.5,112c0-4.5-3.7-8.2-8.2-8.2c-2.2,0-4.2,0.9-5.7,2.3c-5.6-4-13.3-6.6-21.9-6.9l3.7-17.5l12.2,2.6
				c0.1,3.1,2.7,5.6,5.8,5.6c3.2,0,5.8-2.6,5.8-5.8s-2.6-5.8-5.8-5.8c-2.3,0-4.3,1.3-5.2,3.3l-13.6-2.9c-0.4-0.1-0.8,0-1.1,0.2
				c-0.3,0.2-0.6,0.5-0.6,0.9l-4.2,19.5c-8.7,0.2-16.5,2.8-22.2,6.9c-1.5-1.4-3.5-2.3-5.7-2.3c-4.5,0-8.2,3.7-8.2,8.2
				c0,3.3,2,6.2,4.8,7.4c-0.1,0.8-0.2,1.6-0.2,2.5c0,12.6,14.6,22.8,32.7,22.8s32.7-10.2,32.7-22.8c0-0.8-0.1-1.6-0.2-2.5
				C146.5,118.2,148.5,115.3,148.5,112z M92.5,117.8c0-3.2,2.6-5.8,5.8-5.8c3.2,0,5.8,2.6,5.8,5.8c0,3.2-2.6,5.8-5.8,5.8
				C95.1,123.6,92.5,121,92.5,117.8z M125,133.2c-4,4-11.6,4.3-13.9,4.3c-2.2,0-9.9-0.3-13.9-4.3c-0.6-0.6-0.6-1.5,0-2.1
				c0.6-0.6,1.5-0.6,2.1,0c2.5,2.5,7.9,3.4,11.7,3.4c3.8,0,9.2-0.9,11.7-3.4c0.6-0.6,1.5-0.6,2.1,0
				C125.6,131.7,125.6,132.6,125,133.2z M124,123.6c-3.2,0-5.8-2.6-5.8-5.8c0-3.2,2.6-5.8,5.8-5.8c3.2,0,5.8,2.6,5.8,5.8
				C129.8,121,127.2,123.6,124,123.6z"/>
		</g>
	</g>
	<g>
		<g>
			<path class="st1" d="M221.4,86.5h-9.7l-22.2,56h14.4l3.1-8.2h19h0l3.1,8.2h12.9c1.1,0,1.9-1.2,1.5-2.2L221.4,86.5z M211.9,121.8
				l4.8-13l0,0.1l4.7,12.9H211.9z"/>
			<path class="st1" d="M359.3,140.3l-22.1-53.8h-9.7l-22.2,56h14.4l3.1-8.2h19h0l3.1,8.2h12.9C358.9,142.5,359.7,141.4,359.3,140.3
				z M327.6,121.8l4.8-13l0,0.1l4.7,12.9H327.6z"/>
		</g>
		<path class="st1" d="M275.4,108.4L275.4,108.4l-0.1,0.2l-14.6-21.4h-10.8v55.4h13.5V115l0,0l8,11.9h6.8c0.5,0,0.9-0.2,1.2-0.6
			l7.7-11.5v27.7h11.7c0.9,0,1.6-0.7,1.6-1.6V87.1h-10.6L275.4,108.4z"/>
	</g>
</g>
<g id="Spacing_Guides" class="st2">
	<rect class="st3" width="616.9" height="55.9"/>
	<rect y="167.8" class="st3" width="616.9" height="55.9"/>
	<rect x="0" class="st3" width="55.9" height="223.8"/>
	<rect x="561" class="st3" width="55.9" height="223.8"/>
</g>
</svg>
